<?xml version="1.0" standalone="no"?>
<!DOCTYPE svg PUBLIC "-//W3C//DTD SVG 20010904//EN"
 "http://www.w3.org/TR/2001/REC-SVG-20010904/DTD/svg10.dtd">
<svg version="1.0" xmlns="http://www.w3.org/2000/svg"
 width="375.000000pt" height="375.000000pt" viewBox="0 0 375.000000 375.000000"
 preserveAspectRatio="xMidYMid meet">
<metadata>
Created by potrace 1.11, written by Peter Selinger 2001-2013
</metadata>
<g transform="translate(0.000000,375.000000) scale(0.100000,-0.100000)"
fill="#000000" stroke="none">
<path d="M1680 3744 c-95 -15 -214 -38 -265 -51 -33 -8 -64 -16 -70 -17 -20
-4 -91 -28 -122 -42 -17 -8 -33 -14 -36 -14 -2 0 -22 -8 -43 -17 -22 -9 -41
-17 -44 -18 -3 0 -34 -16 -69 -34 -524 -269 -876 -734 -997 -1318 -23 -109
-27 -157 -30 -323 -3 -270 28 -462 113 -690 221 -595 740 -1044 1363 -1179
140 -30 167 -33 375 -36 196 -3 320 10 475 49 82 21 222 66 235 76 6 4 21 11
35 15 38 11 225 106 228 116 2 5 8 9 13 9 15 0 155 96 228 158 311 261 528
603 625 987 13 55 27 119 31 142 3 23 8 57 12 75 10 59 12 391 2 458 -18 128
-25 168 -45 245 -9 33 -17 67 -19 75 -19 88 -139 352 -206 454 -21 32 -39 60
-39 63 0 14 -143 185 -218 261 -115 116 -167 160 -287 241 -227 152 -500 261
-742 297 -26 3 -57 9 -68 11 -25 6 -402 12 -435 7z"/>
</g>
</svg>
